<?xml version="1.0" encoding="utf-8"?>
<!-- Generator: Adobe Illustrator 21.0.2, SVG Export Plug-In . SVG Version: 6.00 Build 0)  -->
<svg version="1.1" id="Layer_1" xmlns="http://www.w3.org/2000/svg" xmlns:xlink="http://www.w3.org/1999/xlink" x="0px" y="0px"
	 viewBox="0 0 527.5 509.6" style="enable-background:new 0 0 527.5 509.6;" xml:space="preserve">
<style type="text/css">
	.st0{fill:#18447E;stroke:#FFFFFF;stroke-width:15;stroke-miterlimit:10;}
	.st1{fill:none;stroke:#FFFFFF;stroke-width:30;stroke-linecap:round;stroke-linejoin:round;stroke-miterlimit:10;}
	.st2{fill:none;stroke:#FFFFFF;stroke-width:30;stroke-linecap:round;stroke-miterlimit:10;}
</style>
<g>
	<path class="st0" d="M508,502.1H282c-6.6,0-12-5.4-12-12V19.5c0-6.6,5.4-12,12-12h226c6.6,0,12,5.4,12,12v470.6
		C520,496.7,514.6,502.1,508,502.1z"/>
	<line class="st1" x1="507.5" y1="156.8" x2="372.5" y2="156.8"/>
	<line class="st2" x1="268" y1="361.8" x2="402.5" y2="361.8"/>
</g>
<g>
	<path class="st0" d="M245.5,502.1h-226c-6.6,0-12-5.4-12-12V19.5c0-6.6,5.4-12,12-12h226c6.6,0,12,5.4,12,12v470.6
		C257.5,496.7,252.1,502.1,245.5,502.1z"/>
	<line class="st2" x1="247.5" y1="159.8" x2="112.5" y2="159.8"/>
	<line class="st2" x1="248" y1="361.8" x2="112.5" y2="361.8"/>
</g>
</svg>
